<svg width="972" height="972" xmlns="http://www.w3.org/2000/svg" xmlns:xlink="http://www.w3.org/1999/xlink" xml:space="preserve" overflow="hidden"><defs><clipPath id="clip0"><rect x="325" y="1727" width="972" height="972"/></clipPath><clipPath id="clip1"><rect x="408" y="1907" width="810" height="585"/></clipPath><clipPath id="clip2"><rect x="408" y="1907" width="810" height="585"/></clipPath><clipPath id="clip3"><rect x="408" y="1907" width="810" height="585"/></clipPath><clipPath id="clip4"><rect x="408" y="1907" width="810" height="585"/></clipPath></defs><g clip-path="url(#clip0)" transform="translate(-325 -1727)"><rect x="330.5" y="1734.5" width="961" height="960" stroke="#2F528F" stroke-width="4.58333" stroke-linecap="butt" stroke-linejoin="miter" stroke-miterlimit="8" stroke-opacity="1" fill="#056469" fill-opacity="1"/><g clip-path="url(#clip1)"><g clip-path="url(#clip2)"><g clip-path="url(#clip3)"><g clip-path="url(#clip4)"><path d="M882.955 1465.45C851.491 1575.16 847.25 1571.72 815.912 1680.7 786.789 1799.29 841.108 1920.86 897.182 2044.33 728.654 2056.54 617.527 1975.5 440.378 2033.15 369.083 1718.75 617.137 1622.06 882.955 1465.45Z" fill="#FFFFFF" fill-rule="evenodd" fill-opacity="1" transform="matrix(1 0 0 1.00015 -16.814 442.915)"/><path d="M1116.1 1795.95C1046.26 1795.95 977.54 1795.95 907.485 1795.95 907.485 1691.19 907.485 1587 907.485 1481.3 995.904 1483.69 1075.68 1509.08 1138.69 1576.13 1195.27 1636.32 1225.94 1709.92 1233.23 1795.95 1192.98 1795.95 1155.11 1795.95 1116.1 1795.95Z" fill="#FFFFFF" fill-rule="evenodd" fill-opacity="1" transform="matrix(1 0 0 1.00015 -16.814 442.915)"/><path d="M1224.2 1891.04C1224.11 1892.06 1224.02 1893.09 1223.12 1895.23 1216.1 1910.43 1209.89 1924.53 1203.67 1938.62 1203.67 1938.62 1203.68 1938.63 1202.96 1938.87 1198.97 1942.92 1195.27 1946.4 1192.51 1950.57 1157.84 2003.09 1106.38 2018.55 1049.35 2021.83 1049.35 1957.32 1049.35 1892.82 1049.35 1826.86 1110.21 1826.86 1170.63 1826.86 1232.21 1827.98 1233.85 1836.2 1234.33 1843.27 1234.81 1850.36 1234.64 1851.4 1234.47 1852.44 1233.37 1854.64 1229.7 1867.54 1226.95 1879.29 1224.2 1891.04Z" fill="#FFFFFF" fill-rule="evenodd" fill-opacity="1" transform="matrix(1 0 0 1.00015 -16.814 442.915)"/><path d="M1020.82 1952.83C1020.82 1976.69 1020.82 1999.36 1020.82 2022.19 1008.18 2026.91 997.164 2022.23 985.64 2019.53 952.804 2011.86 932.657 1989.2 919.152 1958.9 914.515 1948.5 913.35 1936.45 909.07 1925.83 904.703 1914.99 909.958 1914.81 917.464 1914.84 944.403 1914.94 971.342 1914.85 998.289 1914.83 1005.4 1914.83 1012.51 1914.83 1020.82 1914.83 1020.82 1927.97 1020.82 1939.81 1020.82 1952.83Z" fill="#FFFFFF" fill-rule="evenodd" fill-opacity="1" transform="matrix(1 0 0 1.00015 -16.814 442.915)"/></g></g></g></g></g></svg>